<svg xmlns="http://www.w3.org/2000/svg" viewBox="0 0 400 400">
  <!-- Background Shield -->
  <path d="M200 20 L350 70 V180 C350 280 200 370 200 370 C200 370 50 280 50 180 V70 Z" fill="#2c3e50" stroke="#e74c3c" stroke-width="8"/>

  <!-- Map Pin Background -->
  <circle cx="200" cy="180" r="70" fill="white"/>

  <!-- Map Pin Inner -->
  <path d="M200 130 C175 130 155 150 155 175 C155 210 200 250 200 250 C200 250 245 210 245 175 C245 150 225 130 200 130 Z" fill="#e74c3c"/>

  <!-- Map Pin Hole -->
  <circle cx="200" cy="170" r="15" fill="white"/>

  <!-- Radar Waves -->
  <path d="M110 180 A 90 90 0 0 1 290 180" fill="none" stroke="#3498db" stroke-width="6" stroke-linecap="round" stroke-dasharray="10 15"/>
  <path d="M140 180 A 60 60 0 0 1 260 180" fill="none" stroke="#3498db" stroke-width="6" stroke-linecap="round" stroke-dasharray="8 12"/>

  <!-- Eye -->
  <path d="M165 210 Q200 230 235 210" fill="none" stroke="#34495e" stroke-width="5" stroke-linecap="round"/>
</svg>